<svg xmlns="http://www.w3.org/2000/svg" viewBox="0 0 128 128" id="caugh-problem"><path fill="#bde5ec" d="M47.2 88.2C36.1 97.1 27.7 110.6 23 128h62c-3-8-7-13-10.7-22.9L52.9 85.3l-5.7 2.9z"></path><path fill="#892e1d" d="M107.4 32.9c1.5 10.5-5.9 16.5-7.5 18.3-1.6 1.8-31.1 14.6-33.8 25.3s-.5 12-.5 12-7.2.3-13 3.9c-19.3 12.1-29.3-1.7-32.5-11.9C33 63 23 29.6 48.9 12.6c21.7-14.2 54.8-4.9 58.5 20.3z"></path><path fill="#ffc298" d="M78.1 79.7s-5.3 21-3.8 25.4C57.6 106.7 53 95 52.7 92.4 57 88 59 78 59.7 54.7c18.3 13.6 18.4 25 18.4 25z"></path><path fill="#e1927a" d="M62.7 67.6c-.8 7.4 3.4 18.4 12.7 24 1.2-6.1 2.6-11.9 2.6-11.9S63.1 63.8 62.7 67.6z"></path><path fill="#ffc298" d="M101.6 37.4c1 6.7-1.2 8.6-1.4 16.9-.1 6 .2 12.6 2.1 15-3.2 3.4-7.8 2.4-7.8 2.4s-.5 2.5-1.9 5.3C90 77 83 72 83 72s1 7 6.5 9.8c-2.7 3.1-6.8 6.6-12.5 4.2-18.7-8-19.2-30.1-19.2-30.1s-7.4 4.2-8.4-2.6 6.5-15.7 11-5.8c2.9-10 12.8-12.4 19.4-14.7 17.5-6.1 20.7-2.1 21.8 4.6z"></path><path fill="#892e1d" d="M58.7 39.9c1.2 2.6 1.7 7.7 1.7 7.7s23.3 1.6 27.9-12.9c2.6 3 1.5 8.5 1.5 8.5s8.7 1 11.8-5.7c10.5-23.3-31.2-22-38.9-16.3s-5.7 15-4 18.7z"></path><path fill="#e1927a" d="M56.2 47.5c-.2.6-.5 1.1-.7 1.6-.2.5-.3.8-.4 1.2-.1.4-.2.8-.2 1.3-.1.2 0 .5-.1.8 0 .3 0 .6-.1 1v.1c-.1.3-.4.5-.7.4-.1 0-.1 0-.2-.1-.3-.2-.6-.5-.9-.8-.2-.3-.5-.6-.6-1-.3-.7-.4-1.6-.1-2.5.2-.9.7-1.6 1.3-2.1.6-.5 1.4-.8 2.3-.8.3 0 .5.3.5.6v.2l-.1.1z"></path><path fill="#bde5ec" d="M95.1 81.7c1.7 1.1 3.4 2.1 5.2 3l-1.3 2c-1.6-1.3-3-2.7-4.5-4.2l.6-.8zm8.3 4.4c1.8.8 3.6 1.4 5.4 1.8l-1.5 4.4c-2-.9-3.8-2.1-5.5-3.3l1.6-2.9zM95.6 79.4l5.9-.3-.1 2.5-5.9-1.2zM103.3 78.9c1.9-.2 3.9-.5 5.6-1.1l.7 4.6c-2.3.1-4.3-.2-6.4-.5l.1-3z"></path><g fill="#bde5ec"><path d="m94.2 84.5 3.9 4.8-2.3 1.3-2.4-5.5zM99.2 90.7c1.2 1.7 2.4 3.4 3.4 5.4l-4.4 1.5c-.3-1.7-1-3.6-1.7-5.4l2.7-1.5z"></path></g></svg>