<svg xmlns="http://www.w3.org/2000/svg" width="128" height="128" fill="none" viewBox="0 0 128 128" id="medical-treatment"><path fill="#FD5883" d="M8 62C8 57.5817 11.5817 54 16 54H82C86.4183 54 90 57.5817 90 62V102C90 106.418 86.4183 110 82 110H16C11.5817 110 8 106.418 8 102V62Z"></path><path fill="#fff" d="M45 70H53V94H45V70Z"></path><path fill="#fff" d="M61 78L61 86L37 86L37 78L61 78Z"></path><path fill="#FD5883" fill-rule="evenodd" d="M49 39C42.4293 39 37 44.397 37 51.1818V58H25V51.1818C25 37.8836 35.6885 27 49 27C62.3115 27 73 37.8836 73 51.1818V58H61V51.1818C61 44.397 55.5707 39 49 39Z" clip-rule="evenodd"></path><path fill="#8D399A" d="M72 43C72 38.5817 75.5817 35 80 35H112C116.418 35 120 38.5817 120 43V91C120 95.4183 116.418 99 112 99H80C75.5817 99 72 95.4183 72 91V43zM76 16C76 13.7909 77.7909 12 80 12H112C114.209 12 116 13.7909 116 16V24C116 26.2091 114.209 28 112 28H80C77.7909 28 76 26.2091 76 24V16z"></path><path fill="#8D399A" d="M80 28C80 25.7909 81.7909 24 84 24H108C110.209 24 112 25.7909 112 28V35C112 37.2091 110.209 39 108 39H84C81.7909 39 80 37.2091 80 35V28Z"></path><path fill="#fff" d="M80 47H112V71H80V47Z"></path><path fill="#FFC75B" d="M65 80C65 75.5817 68.5817 72 73 72H91C95.4183 72 99 75.5817 99 80V108C99 112.418 95.4183 116 91 116H73C68.5817 116 65 112.418 65 108V80zM68 62C68 59.7909 69.7909 58 72 58H92C94.2091 58 96 59.7909 96 62V64C96 66.2091 94.2091 68 92 68H72C69.7909 68 68 66.2091 68 64V62z"></path><path fill="#FFC75B" d="M73 68C73 65.7909 74.7909 64 77 64H87C89.2091 64 91 65.7909 91 68V71C91 73.2091 89.2091 75 87 75H77C74.7909 75 73 73.2091 73 71V68Z"></path><path fill="#fff" d="M71 82H93V98H71V82Z"></path></svg>