<svg xmlns="http://www.w3.org/2000/svg" enable-background="new 0 0 70 70" viewBox="0 0 70 70" id="treatment"><path fill="#5b52c5" d="M56.51,7.11l7.89,12.31c2.62,4.08,1.43,9.52-2.66,12.13s-9.52,1.43-12.13-2.66l-7.89-12.31
				c-2.61-4.08-1.42-9.51,2.66-12.13C46.42,3.15,48.8,2.8,51,3.28C53.19,3.75,55.2,5.08,56.51,7.11z"></path><path fill="#8f90fb" d="M56.51,10.11l7.89,12.31c2.62,4.08,1.43,9.52-2.66,12.13s-9.52,1.43-12.13-2.66l-7.89-12.31
				c-2.61-4.08-1.42-9.51,2.66-12.13C46.42,6.15,48.8,5.8,51,6.28C53.19,6.75,55.2,8.08,56.51,10.11z"></path><path fill="#fbe063" d="M45.22,25.05l4.39,6.85c2.62,4.08,8.05,5.27,12.13,2.66s5.27-8.05,2.66-12.13l-4.39-6.85L45.22,25.05z"></path><circle cx="31.02" cy="28.4" r="10.29" fill="#efefed"></circle><path fill="#e2e2e0" d="M39.74,33.87c-0.82,1.32-1.93,2.42-3.24,3.24L22.3,22.93c0.82-1.32,1.94-2.42,3.24-3.24L39.74,33.87z"></path><g><path fill="#495e66" d="M16.21,40.89v18.72c0,1.21-0.98,2.2-2.2,2.2H6.36c-1.22,0-2.2-0.99-2.2-2.2V40.89c0-1.22,0.98-2.2,2.2-2.2
						h7.65C15.23,38.69,16.21,39.67,16.21,40.89z"></path><path fill="#ffc6cd" d="M67.16,47.75c0,1.15-0.62,2.21-1.63,2.78c0,0-20.87,14.82-29.25,15.29c-5.43,0.31-20.06-8.49-20.06-8.49
						V41.65c0,0,4.7-0.13,10.23,0c4,0.09,8.33,2.12,11.65,5.12h7.46c1.69,0,3.08,1.27,3.24,2.92c0.01,0.01,0,0.01,0,0.01
						c0.01,0.1,0.02,0.21,0.02,0.32c0,0.64-0.19,1.24-0.51,1.74c0,0.01,0,0.02-0.01,0.02l14.28-6.9
						C64.7,43.86,67.16,45.4,67.16,47.75z"></path><path fill="#ffaecd" d="M48.8,49.7c0.01,0.1,0.02,0.21,0.02,0.32c0,0.64-0.19,1.24-0.51,1.74c-0.01,0.02-0.02,0.02-0.04,0.02
						c-0.58,0.38-1.26,0.59-2,0.59h-14.4c-0.28,0-0.5-0.22-0.5-0.5c0-0.28,0.22-0.5,0.5-0.5h14.4c0.97,0,1.82-0.5,2.32-1.26V50.1
						C48.67,49.97,48.74,49.84,48.8,49.7z"></path><circle cx="12.08" cy="57.08" r="1.75" fill="#fff"></circle></g></svg>